<?xml version="1.0" encoding="UTF-8"?>
<!DOCTYPE svg PUBLIC "-//W3C//DTD SVG 1.1//EN" "http://www.w3.org/Graphics/SVG/1.1/DTD/svg11.dtd">
<!-- Creator: CorelDRAW -->
<svg xmlns="http://www.w3.org/2000/svg" xml:space="preserve" width="210mm" height="297mm" version="1.1" style="shape-rendering:geometricPrecision; text-rendering:geometricPrecision; image-rendering:optimizeQuality; fill-rule:evenodd; clip-rule:evenodd"
viewBox="0 0 21000 29700"
 xmlns:xlink="http://www.w3.org/1999/xlink"
 xmlns:xodm="http://www.corel.com/coreldraw/odm/2003">
 <defs>
  <style type="text/css">
   <![CDATA[
    .fil1 {fill:#030202}
    .fil2 {fill:#E04A9A}
    .fil3 {fill:#F8D615}
    .fil0 {fill:#FEFEFE}
   ]]>
  </style>
 </defs>
 <g id="Layer_x0020_1">
  <metadata id="CorelCorpID_0Corel-Layer"/>
  <g id="_2647386053472">
   <path class="fil0" d="M10349.69 13996.18c572.58,-209.6 962.23,456.98 422.8,645.84 -575.33,201.43 -1006.81,-432.06 -422.8,-645.84zm-2026.62 -714.26c418.58,-204.53 545.77,581.03 228.07,730.22 -448.58,210.64 -555.66,-570.15 -228.07,-730.22zm4157.59 -0.84c424.2,-169.9 498.57,632.86 169.15,743.08 -398.37,133.29 -552.98,-589.34 -169.15,-743.08zm1668.74 -1236.32c-256.1,48.56 -352.05,250.68 -634.77,333.6 -700.46,205.42 -1001.13,-575.23 -1118.99,-642.46 -246.38,-140.55 -371.35,-6.85 -616.14,-298.61 -276.17,-329.15 -237.69,-149.54 -652.15,-72.01 -295.26,55.23 -513.71,-16.13 -697.18,-164.65 -608.62,-492.69 -177.76,-1037.86 -245.45,-1376.32 -409.66,-131.64 -995.58,130.53 -1322.63,123.1 -192.74,-4.37 -638.84,-291.64 -1060.04,-419.01 -858.68,-259.67 -985.69,581.06 -927.93,1113.85 55.94,516 89.06,253.66 333.47,325.52 58.77,244.1 -306.83,663.86 -417.59,966.01 -677.85,1849.08 345.09,914.94 353.29,1433.87 -177.68,95.79 -323.3,-0.39 -502.54,70.5 -33.18,225.34 64.5,410.57 136.05,567.42 168.64,7.67 285.42,-25.3 415.46,36.5 -21.45,167.13 -118.51,143 -299.12,214.51 44.79,198.22 179.63,377.55 312.18,454.03 230.67,18.24 216.83,-83.48 469.15,-42.98 -23.38,222.5 -103.61,148.04 -212.26,286.21 55.55,91.03 370,360.57 514.36,286.4 150.79,-73.41 90.26,-172.63 171.92,-364.79 224.76,-528.96 870.96,-209.69 1100.77,-203.35 463.17,12.78 790.14,263.48 884.36,659.44 43.61,183.27 -11.37,299.46 48.2,469.39l694.66 11.1c-60.1,-775.64 234.51,-1086.5 980.73,-1115.83 355.14,-13.97 417.13,-248.93 821.67,1.08 283.97,175.51 89.66,386.02 375.47,639.51 257.62,-34.6 636.87,-350.78 707.75,-559.19 -135.81,-136.19 -149.75,8.99 -160.79,-211.49l126.83 -40.2c184.76,-28.6 332.03,122.52 474.58,-544.92 -169.2,-32.09 -215.29,-24.59 -241.88,-190.35 275.35,-151.74 276.02,90.59 351.11,-186.93 51,-188.5 98.35,-410.32 -64.61,-439.38l-185.34 10.84c-128.75,16.42 -130.24,36.89 -229.84,-13.11 -109.56,-252.67 315.56,-231.9 498.46,-307.71 47.46,-221.7 -15,-413.2 -93.04,-629.8l-88.18 -179.79z"/>
   <path class="fil1" d="M9887.99 16258.04l129.52 -181.56c358.12,14.39 971.97,-43.62 1057.22,143.01 16.15,216.26 -80.22,119.41 -54.33,350.82 262.26,169.48 510.71,68.05 605.65,331.22 -228.75,-17.39 -576.67,-184.49 -620.28,30.11 -50.8,249.94 316.61,291.41 535.93,284.99 277.3,-8.11 427.6,-146.93 688.94,-26.11 267.31,123.59 358.2,128.16 685.41,126.42 245.39,700.52 658.19,2824.58 -225.44,3193.26 -376.73,157.18 -1401.08,198.13 -1776.2,39.86 -599.26,-252.85 -32.75,-1412.72 -430.92,-1569.07 -375.91,327.58 196.06,1308.14 -398.34,1566.4 -369.64,160.61 -1391.84,137.73 -1759.78,-16.89 -526.6,-221.31 -539.11,-761.95 -536.84,-1452.57 2.37,-722.65 92.59,-1153.72 286.63,-1740.1 860.2,-12.42 772.51,-276.83 1057.56,-189.82 217.14,66.28 348.62,94.19 593.1,43.84 514.4,-105.92 225.28,-380.64 209.95,-353.25l-115.54 -16.81c-42.62,3.58 -99.02,29.08 -136.63,41.07 -151.49,48.29 -165.58,46.2 -322.19,18.18 46.64,-259.52 444.21,-168.4 662.21,-333.86 8.04,-60.71 12.77,-53.08 0.33,-108.89 -33.72,-151.24 -84.7,-83.87 -135.96,-180.25zm-63.95 -458.23c-102.79,344.35 -273.08,456.94 -472.19,631.59 -206,180.69 -328.02,366.62 -617.46,509.25 -911.23,449.03 -1713.95,-456.94 -573.56,-1454.76 147.26,-128.85 182.23,-91.73 218.7,-352.42 24.55,-175.49 83.76,-265.48 276.53,-280.19 201.67,-15.39 199.52,120.84 413.26,120.42 194.98,-0.38 269.31,-68.5 479.38,33.8 256.84,125.08 379.83,442.26 275.34,792.31zm1330.13 -176.24c-91.1,-794.43 795.29,-595.79 953.22,-665.43 544.13,-239.92 419.69,89.65 561.87,384.94 95.76,198.88 581.99,482.1 714.16,975.16 159.55,595.16 -357.6,988.16 -1229.18,523.96 -424.09,-225.87 -939.26,-688.42 -1000.07,-1218.63zm1933.98 -4229.17c37.45,-156.49 78.48,-248.1 180.02,-324.76 1.1,0.71 159.09,30.95 79.94,224.9 -44.52,109.12 -131.51,112.16 -259.96,99.86zm-104.81 -423.65c-221.79,802.05 -1290.94,570.99 -1166.48,-246.63 117.38,-771.1 1387.33,-552.06 1166.48,246.63zm-261.86 704.97c307.35,-231.88 460.32,34.56 712.63,-152.66 198.73,-147.47 157.08,-466.67 -1.07,-610.84 -86.37,-78.74 -199.35,-103.57 -203.14,-259.94 -8.65,-357.62 752.58,-248.03 979.06,-23.28 444.51,441.11 -321.91,1569.69 -1013.19,1483.3 -232.59,-29.06 -460.49,-225.18 -474.29,-436.58zm-1145.27 -1127.24c-266.24,-104.58 -173.31,-541.57 240.18,-385.77 -21.97,114.76 -129.71,319.27 -240.18,385.77zm2573.19 1496.28l88.18 179.79c78.04,216.6 140.5,408.1 93.04,629.8 -182.9,75.81 -608.02,55.04 -498.46,307.71 99.6,50 101.09,29.53 229.84,13.11l185.34 -10.84c162.96,29.06 115.61,250.88 64.61,439.38 -75.09,277.52 -75.76,35.19 -351.11,186.93 26.59,165.76 72.68,158.26 241.88,190.35 -142.55,667.44 -289.82,516.32 -474.58,544.92l-126.83 40.2c11.04,220.48 24.98,75.3 160.79,211.49 -70.88,208.41 -450.13,524.59 -707.75,559.19 -285.81,-253.49 -91.5,-464 -375.47,-639.51 -404.54,-250.01 -466.53,-15.05 -821.67,-1.08 -746.22,29.33 -1040.83,340.19 -980.73,1115.83l-694.66 -11.1c-59.57,-169.93 -4.59,-286.12 -48.2,-469.39 -94.22,-395.96 -421.19,-646.66 -884.36,-659.44 -229.81,-6.34 -876.01,-325.61 -1100.77,203.35 -81.66,192.16 -21.13,291.38 -171.92,364.79 -144.36,74.17 -458.81,-195.37 -514.36,-286.4 108.65,-138.17 188.88,-63.71 212.26,-286.21 -252.32,-40.5 -238.48,61.22 -469.15,42.98 -132.55,-76.48 -267.39,-255.81 -312.18,-454.03 180.61,-71.51 277.67,-47.38 299.12,-214.51 -130.04,-61.8 -246.82,-28.83 -415.46,-36.5 -71.55,-156.85 -169.23,-342.08 -136.05,-567.42 179.24,-70.89 324.86,25.29 502.54,-70.5 -8.2,-518.93 -1031.14,415.21 -353.29,-1433.87 110.76,-302.15 476.36,-721.91 417.59,-966.01 -244.41,-71.86 -277.53,190.48 -333.47,-325.52 -57.76,-532.79 69.25,-1373.52 927.93,-1113.85 421.2,127.37 867.3,414.64 1060.04,419.01 327.05,7.43 912.97,-254.74 1322.63,-123.1 67.69,338.46 -363.17,883.63 245.45,1376.32 183.47,148.52 401.92,219.88 697.18,164.65 414.46,-77.53 375.98,-257.14 652.15,72.01 244.79,291.76 369.76,158.06 616.14,298.61 117.86,67.23 418.53,847.88 1118.99,642.46 282.72,-82.92 378.67,-285.04 634.77,-333.6zm-2018.74 -2006.05c-249.27,-16.91 -460.25,-342.49 -782.6,-34.74 -246.41,235.24 -163.95,526.01 64.76,708.18 377.72,300.84 -146.32,402.68 -436.92,400.63 -348.89,-2.46 -561.77,-181.78 -592.45,-496.53 -60.51,-620.74 342.92,-1282.09 683.2,-1494.02 564.98,-351.88 1160.76,578.54 1064.01,916.48zm1864.04 113.19c-202.14,43.36 -393.16,1.67 -598.82,38.94 -330.81,59.94 -239.51,95.51 -520.22,-62.71 -115.22,-64.95 -521,-139.07 -477.77,-461.1 16.26,-121.15 58.46,-101.11 189.85,-152.95 275.36,-108.64 670.81,-360.17 1029.94,-273.1 289.49,70.18 421.36,587.29 377.02,910.92zm-3618.82 -672.09c-353.91,1.55 -691.94,18.93 -1026.25,65.45 -598.16,83.24 -428.85,82.94 -922.15,-114.21 -561.8,-224.52 -1310.33,-492.72 -1631.8,73.86 -475.64,838.29 -97.85,1784.91 -99.56,1851.32 -1.66,64.43 -248.98,612.38 -294.93,780.58 -90.63,331.76 -82.78,656.14 -137.61,997.43 -204.15,68.18 -800.7,19.37 -868.56,268.66 42.96,30.7 18.45,23.3 87.09,41.84 176.67,47.73 488.35,-33.59 771.48,-8.91 105.87,132.24 189.31,478.78 176.48,669.77 -207.36,79.45 -492.8,76.65 -479.83,303.25l583.88 -49.35c76.78,96.94 311.04,437.15 343.94,559.09 -126.41,110.58 -796.99,440 -653.5,595.93 110.45,120.02 466.86,-252.47 729.19,-356.04 190.09,-75.05 271.46,26.83 386.34,119.43 123.81,99.8 243.51,146.28 355.53,239.91 -32.88,137.71 -155.54,248.89 -229.99,400.9 -441.5,901.52 210.63,1215.96 332.6,1361.53 -103.69,542.3 -251.77,869.89 -287.48,1511.08 -75.77,1360.6 73.35,2024.13 1420.47,2126.61 1187.53,90.34 1434.82,-264.68 1552.71,-266.69 106.11,-1.8 423.12,351.96 1473.37,280.97 573.36,-38.75 1037.79,-124.79 1278.46,-512.47 246.99,-397.88 280.27,-1002.07 249.92,-1553.95 -49.88,-907.25 -244.73,-1231.46 -270.32,-1585.55 143,-136.7 215.39,-114.32 347.86,-304.39 404.71,-580.65 -193.97,-1155.93 -257.52,-1394.6 343.3,-191.28 460.19,-352.98 714.81,-581.51 277.1,-248.7 555.76,235.85 1004.31,161.03 -53.01,-312.51 -319.48,-208.28 -701.29,-524.18l202.58 -578.27 815.81 24.93c-38.31,-196.28 -119.27,-166.53 -334.04,-203.58 -202.47,-34.93 -274.63,-41.81 -385.98,-168.23 -88.96,-1059.26 563.48,-442.2 968.81,-661.03 -70.15,-311.2 -628.44,-96.42 -912.57,-207.43 -73.73,-128.33 -69.23,-329.29 -108.11,-494.68 -42.47,-180.61 -95.63,-314.12 -149.97,-487.56 -99.16,-316.57 244.91,-612.46 148.99,-1063.76 -46.66,-219.53 -136.2,-282.11 -218.91,-413.95 -81.82,-130.43 -75.75,-359.96 -100.4,-536.21 -136.73,-977.71 -580.48,-1060.33 -1490.77,-729.94 -620.91,225.36 -421.55,264.82 -827.51,-121.91 -197.51,-188.15 -596.01,-329.81 -938.02,-158.49 -253.64,127.05 -467.38,416.59 -617.56,643.32z"/>
   <path class="fil0" d="M11902.48 19035.52c200.46,12.15 70.15,-40.54 246.17,-66.25 488.03,-71.28 -163.24,440.13 92.37,889.64 58.18,102.3 106.24,99.87 150.67,169.95 197.63,311.74 -256.12,233.64 -349.28,250.84 -155.38,28.69 -147,114.49 -290.42,-4.24 -83.17,-126.03 125.14,-336.75 70.98,-702.01 -54.54,-367.83 -336.77,-206.6 -187.87,-541.27 177.6,-47.22 128.7,-5.06 267.38,3.34zm-2592.76 1232.13c-212.46,144.79 -135.95,18.46 -343.73,4.83 -205.98,-13.51 -164.56,115.3 -351.45,-66.59 -1.13,-234.48 215.91,-260.33 245.61,-569.69 35.23,-366.97 -219.54,-370.52 -130.94,-651.38 243.56,-35.21 210.03,51.6 380.41,57.66 192.73,6.86 151.55,-84.56 342.49,40.98 12.83,305.47 -196.26,198.25 -246.91,522.14 -57.96,370.63 149.01,415.08 104.52,662.05zm-712.74 -2307.56c957.39,-147.53 1278.12,617.87 2619,228.31 2057.72,-597.83 2027.85,323.77 1438.28,522.01 -452.95,152.31 -950.93,21.69 -1407.33,-46.28 -1511.18,-225.03 -2165.64,257.17 -2792.64,45.79 -529.28,-178.43 -467.19,-655.85 142.69,-749.83zm1607.95 -48.89c91.46,-96.36 160.27,-113.54 349.9,-106.01 196.07,7.79 245.06,35.71 249.43,227.04 -158.07,81.82 -549.13,153.62 -599.33,-121.03zm633.92 -450.35l6.65 207.14c-113.39,81.34 -280.81,78.03 -431.85,63.85 -165.81,-15.56 -222.42,-51.39 -236.21,-204.85 117.35,-140.77 483.5,-120.29 661.41,-66.14zm952.34 -5.34c106.81,-29.79 262.79,-127.51 383.27,-80.63 159.75,62.16 81.89,243.07 -8.39,318.73 -299.96,251.34 -1357.81,223.89 -1130.35,-280.63 331.67,-78.38 383.25,146.34 755.47,42.53zm-2180.76 3.24c113.85,-34.44 250.96,-117.31 364.93,-22.26 76.13,63.48 106.52,192.4 -3.4,281.85 -422.68,343.96 -1637.85,-70.95 -1106.36,-339.5 206.13,-104.15 382.34,189.55 744.83,79.91zm814.36 -1134.86c449.56,-184.06 319.57,898.24 206.85,963.77 -309.55,179.96 -325.76,-146.48 -325.22,-359.08 0.5,-199.6 -76.75,-524.8 118.37,-604.69zm595.61 246.42c-25.89,-231.41 70.48,-134.56 54.33,-350.82 -85.25,-186.63 -699.1,-128.62 -1057.22,-143.01l-129.52 181.56c51.26,96.38 102.24,29.01 135.96,180.25 12.44,55.81 7.71,48.18 -0.33,108.89 -218,165.46 -615.57,74.34 -662.21,333.86 156.61,28.02 170.7,30.11 322.19,-18.18 37.61,-11.99 94.01,-37.49 136.63,-41.07l115.54 16.81c15.33,-27.39 304.45,247.33 -209.95,353.25 -244.48,50.35 -375.96,22.44 -593.1,-43.84 -285.05,-87.01 -197.36,177.4 -1057.56,189.82 -194.04,586.38 -284.26,1017.45 -286.63,1740.1 -2.27,690.62 10.24,1231.26 536.84,1452.57 367.94,154.62 1390.14,177.5 1759.78,16.89 594.4,-258.26 22.43,-1238.82 398.34,-1566.4 398.17,156.35 -168.34,1316.22 430.92,1569.07 375.12,158.27 1399.47,117.32 1776.2,-39.86 883.63,-368.68 470.83,-2492.74 225.44,-3193.26 -327.21,1.74 -418.1,-2.83 -685.41,-126.42 -261.34,-120.82 -411.64,18 -688.94,26.11 -219.32,6.42 -586.73,-35.05 -535.93,-284.99 43.61,-214.6 391.53,-47.5 620.28,-30.11 -94.94,-263.17 -343.39,-161.74 -605.65,-331.22z"/>
   <path class="fil0" d="M8073.96 16328.54c78.19,-249.39 377.2,-195.88 601.95,-397.47 177.74,-159.44 212.51,-451.65 397.61,-548.51 160.15,65.21 74.57,59.47 137.7,170.22 42.75,74.98 9.72,39.88 90.28,90.91l72.63 37.49c3.88,-7.17 17.11,7.29 24.41,12.88 26.51,369.82 -200.07,94.18 -572.69,457.15 -97.96,95.43 -138.57,148.85 -206.5,287.08 -76.31,155.28 -84.35,230.6 -298.65,208.23l-58.98 -134.87c-69.64,-109.26 -96.74,-60.52 -187.76,-183.11zm1750.08 -528.73c104.49,-350.05 -18.5,-667.23 -275.34,-792.31 -210.07,-102.3 -284.4,-34.18 -479.38,-33.8 -213.74,0.42 -211.59,-135.81 -413.26,-120.42 -192.77,14.71 -251.98,104.7 -276.53,280.19 -36.47,260.69 -71.44,223.57 -218.7,352.42 -1140.39,997.82 -337.67,1903.79 573.56,1454.76 289.44,-142.63 411.46,-328.56 617.46,-509.25 199.11,-174.65 369.4,-287.24 472.19,-631.59z"/>
   <path class="fil0" d="M11714.51 15835.06c78.66,-166.76 78.76,-52.94 163.24,-150.52 71.89,-83.03 11.39,-104.83 125.86,-227.93 219.98,17.75 275.79,363.94 454.64,518.8 224.33,194.23 525.72,108.83 625.15,353.13 -57.47,157.45 -34.73,57.01 -130.56,140.66 -123.84,108.1 -36.22,59.18 -107.66,210.62 -382.81,54.92 -93.26,-158.72 -516.28,-469.47 -119.24,-87.59 -138.39,-153.86 -301.5,-186.31 -240.03,-47.75 -213.36,6.51 -312.89,-188.98zm-560.34 -211.49c60.81,530.21 575.98,992.76 1000.07,1218.63 871.58,464.2 1388.73,71.2 1229.18,-523.96 -132.17,-493.06 -618.4,-776.28 -714.16,-975.16 -142.18,-295.29 -17.74,-624.86 -561.87,-384.94 -157.93,69.64 -1044.32,-129 -953.22,665.43z"/>
   <path class="fil1" d="M11658.74 18337.71c155.78,-185.82 730.82,-231.13 940.77,-70.5 -75.63,170.95 -252.13,153.91 -459.04,157.35 -183.54,3.06 -367.46,26.96 -481.73,-86.85zm-3207.67 -96.64c189.5,-145.41 768.1,-117.48 932.19,61.39 -161.58,191.47 -833.6,130.44 -932.19,-61.39zm145.91 -280.98c-609.88,93.98 -671.97,571.4 -142.69,749.83 627,211.38 1281.46,-270.82 2792.64,-45.79 456.4,67.97 954.38,198.59 1407.33,46.28 589.57,-198.24 619.44,-1119.84 -1438.28,-522.01 -1340.88,389.56 -1661.61,-375.84 -2619,-228.31z"/>
   <path class="fil2" d="M12130.66 10038.71c96.75,-337.94 -499.03,-1268.36 -1064.01,-916.48 -340.28,211.93 -743.71,873.28 -683.2,1494.02 30.68,314.75 243.56,494.07 592.45,496.53 290.6,2.05 814.64,-99.79 436.92,-400.63 -228.71,-182.17 -311.17,-472.94 -64.76,-708.18 322.35,-307.75 533.33,17.83 782.6,34.74z"/>
   <path class="fil2" d="M14208.96 10629c-226.48,-224.75 -987.71,-334.34 -979.06,23.28 3.79,156.37 116.77,181.2 203.14,259.94 158.15,144.17 199.8,463.37 1.07,610.84 -252.31,187.22 -405.28,-79.22 -712.63,152.66 13.8,211.4 241.7,407.52 474.29,436.58 691.28,86.39 1457.7,-1042.19 1013.19,-1483.3z"/>
   <path class="fil0" d="M13994.7 10151.9c44.34,-323.63 -87.53,-840.74 -377.02,-910.92 -359.13,-87.07 -754.58,164.46 -1029.94,273.1 -131.39,51.84 -173.59,31.8 -189.85,152.95 -43.23,322.03 362.55,396.15 477.77,461.1 280.71,158.22 189.41,122.65 520.22,62.71 205.66,-37.27 396.68,4.42 598.82,-38.94z"/>
   <path class="fil2" d="M12983.34 10970.75c220.85,-798.69 -1049.1,-1017.73 -1166.48,-246.63 -124.46,817.62 944.69,1048.68 1166.48,246.63z"/>
   <path class="fil1" d="M11635.1 19032.18c-148.9,334.67 133.33,173.44 187.87,541.27 54.16,365.26 -154.15,575.98 -70.98,702.01 143.42,118.73 135.04,32.93 290.42,4.24 93.16,-17.2 546.91,60.9 349.28,-250.84 -44.43,-70.08 -92.49,-67.65 -150.67,-169.95 -255.61,-449.51 395.66,-960.92 -92.37,-889.64 -176.02,25.71 -45.71,78.4 -246.17,66.25 -138.68,-8.4 -89.78,-50.56 -267.38,-3.34z"/>
   <path class="fil1" d="M8614.54 20205.89c186.89,181.89 145.47,53.08 351.45,66.59 207.78,13.63 131.27,139.96 343.73,-4.83 44.49,-246.97 -162.48,-291.42 -104.52,-662.05 50.65,-323.89 259.74,-216.67 246.91,-522.14 -190.94,-125.54 -149.76,-34.12 -342.49,-40.98 -170.38,-6.06 -136.85,-92.87 -380.41,-57.66 -88.6,280.86 166.17,284.41 130.94,651.38 -29.7,309.36 -246.74,335.21 -245.61,569.69z"/>
   <path class="fil1" d="M8073.96 16328.54c91.02,122.59 118.12,73.85 187.76,183.11l58.98 134.87c214.3,22.37 222.34,-52.95 298.65,-208.23 67.93,-138.23 108.54,-191.65 206.5,-287.08 372.62,-362.97 599.2,-87.33 572.69,-457.15 -7.3,-5.59 -20.53,-20.05 -24.41,-12.88l-72.63 -37.49c-80.56,-51.03 -47.53,-15.93 -90.28,-90.91 -63.13,-110.75 22.45,-105.01 -137.7,-170.22 -185.1,96.86 -219.87,389.07 -397.61,548.51 -224.75,201.59 -523.76,148.08 -601.95,397.47z"/>
   <path class="fil1" d="M12328.9 16210.35c423.02,310.75 133.47,524.39 516.28,469.47 71.44,-151.44 -16.18,-102.52 107.66,-210.62 95.83,-83.65 73.09,16.79 130.56,-140.66 -99.43,-244.3 -400.82,-158.9 -625.15,-353.13 -178.85,-154.86 -234.66,-501.05 -454.64,-518.8 -114.47,123.1 -53.97,144.9 -125.86,227.93 -84.48,97.58 -84.58,-16.24 -163.24,150.52 99.53,195.49 72.86,141.23 312.89,188.98 163.11,32.45 182.26,98.72 301.5,186.31z"/>
   <path class="fil1" d="M8865.6 17378.84c-531.49,268.55 683.68,683.46 1106.36,339.5 109.92,-89.45 79.53,-218.37 3.4,-281.85 -113.97,-95.05 -251.08,-12.18 -364.93,22.26 -362.49,109.64 -538.7,-184.06 -744.83,-79.91z"/>
   <path class="fil1" d="M11035.72 17412.98c-227.46,504.52 830.39,531.97 1130.35,280.63 90.28,-75.66 168.14,-256.57 8.39,-318.73 -120.48,-46.88 -276.46,50.84 -383.27,80.63 -372.22,103.81 -423.8,-120.91 -755.47,-42.53z"/>
   <path class="fil1" d="M10294.8 14402.47c-21.94,-307.43 278.57,-309.32 491.11,-170.2l4.18 157.59c-176.69,166.08 -295.39,138.65 -495.29,12.61zm54.89 -406.29c-584.01,213.78 -152.53,847.27 422.8,645.84 539.43,-188.86 149.78,-855.44 -422.8,-645.84z"/>
   <path class="fil1" d="M10424.79 16323.89c-195.12,79.89 -117.87,405.09 -118.37,604.69 -0.54,212.6 15.67,539.04 325.22,359.08 112.72,-65.53 242.71,-1147.83 -206.85,-963.77z"/>
   <path class="fil1" d="M8323.07 13281.92c-327.59,160.07 -220.51,940.86 228.07,730.22 317.7,-149.19 190.51,-934.75 -228.07,-730.22z"/>
   <path class="fil1" d="M12480.66 13281.08c-383.83,153.74 -229.22,876.37 169.15,743.08 329.42,-110.22 255.05,-912.98 -169.15,-743.08z"/>
   <path class="fil0" d="M11658.74 18337.71c114.27,113.81 298.19,89.91 481.73,86.85 206.91,-3.44 383.41,13.6 459.04,-157.35 -209.95,-160.63 -784.99,-115.32 -940.77,70.5z"/>
   <path class="fil0" d="M8451.07 18241.07c98.59,191.83 770.61,252.86 932.19,61.39 -164.09,-178.87 -742.69,-206.8 -932.19,-61.39z"/>
   <path class="fil1" d="M10177.44 17526.99c13.79,153.46 70.4,189.29 236.21,204.85 151.04,14.18 318.46,17.49 431.85,-63.85l-6.65 -207.14c-177.91,-54.15 -544.06,-74.63 -661.41,66.14z"/>
   <path class="fil1" d="M10204.93 17911.2c50.2,274.65 441.26,202.85 599.33,121.03 -4.37,-191.33 -53.36,-219.25 -249.43,-227.04 -189.63,-7.53 -258.44,9.65 -349.9,106.01z"/>
   <path class="fil3" d="M10294.8 14402.47c199.9,126.04 318.6,153.47 495.29,-12.61l-4.18 -157.59c-212.54,-139.12 -513.05,-137.23 -491.11,170.2z"/>
   <path class="fil2" d="M11576.21 10548.48c110.47,-66.5 218.21,-271.01 240.18,-385.77 -413.49,-155.8 -506.42,281.19 -240.18,385.77z"/>
   <path class="fil2" d="M13088.15 11394.4c128.45,12.3 215.44,9.26 259.96,-99.86 79.15,-193.95 -78.84,-224.19 -79.94,-224.9 -101.54,76.66 -142.57,168.27 -180.02,324.76z"/>
  </g>
 </g>
</svg>
